<svg xmlns="http://www.w3.org/2000/svg" width="60" height="60" viewBox="0 0 60 60">
  <g id="Group_6845" data-name="Group 6845" transform="translate(-699 -2131)">
    <circle id="Ellipse_33" data-name="Ellipse 33" cx="30" cy="30" r="30" transform="translate(699 2131)" fill="#a3cef1"/>
    <g id="Group_6824" data-name="Group 6824" transform="translate(715 2147)">
      <path id="Path_8755" data-name="Path 8755" d="M6641.172,6190h-10.526a8.663,8.663,0,0,0-8.646,8.678V6209.2a8.663,8.663,0,0,0,8.646,8.646h10.526a8.663,8.663,0,0,0,8.647-8.646v-10.526a8.663,8.663,0,0,0-8.647-8.678Zm3.164,6.579a1.065,1.065,0,1,0-2.129,0,1.065,1.065,0,1,0,2.129,0Zm-8.427.47a6.892,6.892,0,0,0,0,13.784,6.765,6.765,0,0,0,4.855-2.036,6.845,6.845,0,0,0,0-9.744A6.736,6.736,0,0,0,6635.91,6197.049Zm0,11.4a4.546,4.546,0,1,1,3.2-1.347A4.524,4.524,0,0,1,6635.91,6208.452Zm11.528.751a6.122,6.122,0,0,1-1.848,4.417,6.253,6.253,0,0,1-4.417,1.849h-10.526a6.384,6.384,0,0,1-4.448-1.849,6.225,6.225,0,0,1-1.817-4.417v-10.526a6.246,6.246,0,0,1,1.817-4.448,6.38,6.38,0,0,1,4.448-1.849h10.526a6.249,6.249,0,0,1,4.417,1.849,6.143,6.143,0,0,1,1.848,4.448Z" transform="translate(-6622 -6190)" fill="#fff" fill-rule="evenodd"/>
    </g>
  </g>
</svg>
