<svg xmlns="http://www.w3.org/2000/svg" width="60" height="60" viewBox="0 0 60 60">
  <g id="Group_6877" data-name="Group 6877" transform="translate(-1572 -1956)">
    <circle id="Ellipse_34" data-name="Ellipse 34" cx="30" cy="30" r="30" transform="translate(1572 1956)" fill="#a7bee5"/>
    <path id="Path_8758" data-name="Path 8758" d="M537,6294.021a17.057,17.057,0,0,0,26.159-14.411v-.689a13.257,13.257,0,0,0,2.945-3.07,13.064,13.064,0,0,1-3.383.877h0c.157-.094,2.318-1.566,2.6-3.32a19.036,19.036,0,0,1-2.882,1.222c-.282.093-.6.188-.877.281a5.939,5.939,0,0,0-4.386-1.911,6,6,0,0,0-5.984,5.983,6.34,6.34,0,0,0,.157,1.347,17.9,17.9,0,0,1-12.281-6.2s-2.851,3.916,1.723,7.925a6.188,6.188,0,0,1-2.6-.783,5.7,5.7,0,0,0,4.73,5.952,5.454,5.454,0,0,1-2.632.094,5.922,5.922,0,0,0,5.482,4.2,11.5,11.5,0,0,1-8.772,2.506Z" transform="translate(1050 -4299)" fill="#1e4588" fill-rule="evenodd"/>
  </g>
</svg>
