<svg xmlns="http://www.w3.org/2000/svg" width="24" height="24" viewBox="0 0 24 24"><g transform="translate(-0.03 -0.082)"><circle cx="12" cy="12" r="12" transform="translate(0.03 0.082)" fill="#a3cef1"/><path d="M537,6281.137a6.6,6.6,0,0,0,10.125-5.578v-.267a5.137,5.137,0,0,0,1.14-1.188,5.088,5.088,0,0,1-1.31.34h0a2.406,2.406,0,0,0,1.006-1.286,7.247,7.247,0,0,1-1.116.474c-.109.036-.23.072-.339.109a2.3,2.3,0,0,0-1.7-.74,2.324,2.324,0,0,0-2.316,2.316,2.454,2.454,0,0,0,.061.521,6.932,6.932,0,0,1-4.753-2.4,2.245,2.245,0,0,0,.667,3.068,2.4,2.4,0,0,1-1.006-.3,2.209,2.209,0,0,0,1.831,2.3,2.124,2.124,0,0,1-1.019.036,2.293,2.293,0,0,0,2.122,1.625,4.452,4.452,0,0,1-3.4.97Z" transform="translate(-530.852 -6265.859)" fill="#fff" fill-rule="evenodd"/></g></svg>