<svg xmlns="http://www.w3.org/2000/svg" width="60" height="60" viewBox="0 0 60 60">
  <g id="Group_6881" data-name="Group 6881" transform="translate(-1770 -2129)">
    <g id="Group_6878" data-name="Group 6878" transform="translate(67 173)">
      <circle id="Ellipse_35" data-name="Ellipse 35" cx="30" cy="30" r="30" transform="translate(1703 1956)" fill="#a7bee5"/>
    </g>
    <path id="Icon_awesome-youtube" data-name="Icon awesome-youtube" d="M32.828,8.071a4.078,4.078,0,0,0-2.87-2.888C27.428,4.5,17.278,4.5,17.278,4.5S7.129,4.5,4.6,5.183a4.078,4.078,0,0,0-2.87,2.888,42.782,42.782,0,0,0-.678,7.863A42.782,42.782,0,0,0,1.728,23.8,4.017,4.017,0,0,0,4.6,26.638c2.531.683,12.681.683,12.681.683s10.149,0,12.681-.683a4.017,4.017,0,0,0,2.87-2.842,42.782,42.782,0,0,0,.678-7.863,42.782,42.782,0,0,0-.678-7.863ZM13.959,20.759V11.108l8.483,4.826-8.483,4.826Z" transform="translate(1782.95 2143.5)" fill="#1e4588"/>
  </g>
</svg>
