<svg xmlns="http://www.w3.org/2000/svg" width="126" height="126" viewBox="0 0 126 126">
  <g id="Group_6950" data-name="Group 6950" transform="translate(2306 180)">
    <rect id="Rectangle_17398" data-name="Rectangle 17398" width="126" height="126" transform="translate(-2306 -180)" fill="#1e4588"/>
    <path id="Icon_awesome-search" data-name="Icon awesome-search" d="M60.354,52.908,48.439,40.993a2.866,2.866,0,0,0-2.032-.837H44.459a24.847,24.847,0,1,0-4.3,4.3v1.948a2.866,2.866,0,0,0,.837,2.032L52.908,60.354a2.856,2.856,0,0,0,4.051,0l3.382-3.382a2.882,2.882,0,0,0,.012-4.063Zm-35.5-12.752a15.3,15.3,0,1,1,15.3-15.3A15.289,15.289,0,0,1,24.859,40.156Z" transform="translate(-2274 -148)" fill="#fff"/>
  </g>
</svg>
