<svg xmlns="http://www.w3.org/2000/svg" width="59" height="59" viewBox="0 0 59 59">
  <g id="Group_6881" data-name="Group 6881" transform="translate(-1374 -2395)">
    <circle id="Ellipse_30" data-name="Ellipse 30" cx="29.5" cy="29.5" r="29.5" transform="translate(1374 2395)" fill="#a7bee5"/>
    <path id="ic_call_24px" d="M8.091,13.955a21.3,21.3,0,0,0,9.268,9.268l3.094-3.094a1.4,1.4,0,0,1,1.434-.338,16.042,16.042,0,0,0,5.021.8A1.41,1.41,0,0,1,28.314,22v4.908a1.41,1.41,0,0,1-1.406,1.406A23.905,23.905,0,0,1,3,4.406,1.41,1.41,0,0,1,4.406,3H9.328a1.41,1.41,0,0,1,1.406,1.406,15.976,15.976,0,0,0,.8,5.021,1.411,1.411,0,0,1-.352,1.434Z" transform="translate(1387.614 2408.614)" fill="#1e4588"/>
  </g>
</svg>
